<svg id="visual" viewBox="0 0 900 600" width="900" height="600" xmlns="http://www.w3.org/2000/svg" xmlns:xlink="http://www.w3.org/1999/xlink" version="1.1"><path d="M0 426L21.5 422.8C43 419.7 86 413.3 128.8 406.5C171.7 399.7 214.3 392.3 257.2 383.7C300 375 343 365 385.8 363.5C428.7 362 471.3 369 514.2 379.8C557 390.7 600 405.3 642.8 407.5C685.7 409.7 728.3 399.3 771.2 389.7C814 380 857 371 878.5 366.5L900 362L900 601L878.5 601C857 601 814 601 771.2 601C728.3 601 685.7 601 642.8 601C600 601 557 601 514.2 601C471.3 601 428.7 601 385.8 601C343 601 300 601 257.2 601C214.3 601 171.7 601 128.8 601C86 601 43 601 21.5 601L0 601Z" fill="#69b6fa"></path><path d="M0 475L21.5 468.5C43 462 86 449 128.8 439.8C171.7 430.7 214.3 425.3 257.2 430.8C300 436.3 343 452.7 385.8 453.2C428.7 453.7 471.3 438.3 514.2 426C557 413.7 600 404.3 642.8 400.3C685.7 396.3 728.3 397.7 771.2 408.7C814 419.7 857 440.3 878.5 450.7L900 461L900 601L878.5 601C857 601 814 601 771.2 601C728.3 601 685.7 601 642.8 601C600 601 557 601 514.2 601C471.3 601 428.7 601 385.8 601C343 601 300 601 257.2 601C214.3 601 171.7 601 128.8 601C86 601 43 601 21.5 601L0 601Z" fill="#3e86c7"></path><path d="M0 451L21.5 459.5C43 468 86 485 128.8 485.8C171.7 486.7 214.3 471.3 257.2 467.8C300 464.3 343 472.7 385.8 477.8C428.7 483 471.3 485 514.2 488.2C557 491.3 600 495.7 642.8 496.8C685.7 498 728.3 496 771.2 490.5C814 485 857 476 878.5 471.5L900 467L900 601L878.5 601C857 601 814 601 771.2 601C728.3 601 685.7 601 642.8 601C600 601 557 601 514.2 601C471.3 601 428.7 601 385.8 601C343 601 300 601 257.2 601C214.3 601 171.7 601 128.8 601C86 601 43 601 21.5 601L0 601Z" fill="#005a96"></path><path d="M0 519L21.5 514.3C43 509.7 86 500.3 128.8 502.2C171.7 504 214.3 517 257.2 515.5C300 514 343 498 385.8 497.7C428.7 497.3 471.3 512.7 514.2 521.2C557 529.7 600 531.3 642.8 526C685.7 520.7 728.3 508.3 771.2 507C814 505.7 857 515.3 878.5 520.2L900 525L900 601L878.5 601C857 601 814 601 771.2 601C728.3 601 685.7 601 642.8 601C600 601 557 601 514.2 601C471.3 601 428.7 601 385.8 601C343 601 300 601 257.2 601C214.3 601 171.7 601 128.8 601C86 601 43 601 21.5 601L0 601Z" fill="#003066"></path><path d="M0 565L21.5 562.7C43 560.3 86 555.7 128.8 554.5C171.7 553.3 214.3 555.7 257.2 552.5C300 549.3 343 540.7 385.8 542.2C428.7 543.7 471.3 555.3 514.2 555.5C557 555.7 600 544.3 642.8 537.3C685.7 530.3 728.3 527.7 771.2 531.8C814 536 857 547 878.5 552.5L900 558L900 601L878.5 601C857 601 814 601 771.2 601C728.3 601 685.7 601 642.8 601C600 601 557 601 514.2 601C471.3 601 428.7 601 385.8 601C343 601 300 601 257.2 601C214.3 601 171.7 601 128.8 601C86 601 43 601 21.5 601L0 601Z" fill="#000000"></path></svg>