<?xml version="1.0" encoding="UTF-8"?>
<svg width="700pt" height="700pt" version="1.1" viewBox="0 0 700 700" xmlns="http://www.w3.org/2000/svg">
 <g>
  <path d="m512.75 264.25-162.75 162.75-162.75-162.75c-7-7-17.5-7-24.5 0s-7 17.5 0 24.5l175 175c3.5 3.5 8.75 5.25 12.25 5.25s8.75-1.75 12.25-5.25l175-175c7-7 7-17.5 0-24.5s-17.5-5.25-24.5 0z"/>
  <path d="m337.75 295.75c3.5 3.5 8.75 5.25 12.25 5.25s8.75-1.75 12.25-5.25l175-175c7-7 7-17.5 0-24.5s-17.5-7-24.5 0l-162.75 161-162.75-162.75c-7-7-17.5-7-24.5 0s-7 17.5 0 24.5z"/>
 </g>
</svg>
